<svg width="24" height="24" fill="none" xmlns="http://www.w3.org/2000/svg"><circle cx="12" cy="12" r="4" stroke="#000" stroke-width="2" stroke-linecap="round" stroke-linejoin="round"/><path d="M3 11a1 1 0 1 0 0 2v-2Zm1 2a1 1 0 1 0 0-2v2Zm9-10a1 1 0 1 0-2 0h2Zm-2 1a1 1 0 1 0 2 0h-2Zm9 7a1 1 0 1 0 0 2v-2Zm1 2a1 1 0 1 0 0-2v2Zm-8 7a1 1 0 1 0-2 0h2Zm-2 1a1 1 0 1 0 2 0h-2ZM6.307 4.893a1 1 0 0 0-1.414 1.414l1.414-1.414Zm-.714 2.114a1 1 0 0 0 1.414-1.414L5.593 7.007Zm13.514-.7a1 1 0 0 0-1.414-1.414l1.414 1.414Zm-2.114-.714a1 1 0 0 0 1.414 1.414l-1.414-1.414Zm1.414 11.4a1 1 0 0 0-1.414 1.414l1.414-1.414Zm-.714 2.114a1 1 0 0 0 1.414-1.414l-1.414 1.414Zm-10.686-.7a1 1 0 1 0-1.414-1.414l1.414 1.414Zm-2.114-.714a1 1 0 1 0 1.414 1.414l-1.414-1.414ZM3 13h1v-2H3v2Zm8-10v1h2V3h-2Zm9 10h1v-2h-1v2Zm-9 7v1h2v-1h-2ZM4.893 6.307l.7.7 1.414-1.414-.7-.7-1.414 1.414Zm12.8-1.414-.7.7 1.414 1.414.7-.7-1.414-1.414Zm-.7 13.514.7.7 1.414-1.414-.7-.7-1.414 1.414Zm-11.4-1.414-.7.7 1.414 1.414.7-.7-1.414-1.414Z" fill="#000"/></svg>